<mxfile host="app.diagrams.net" modified="2021-02-19T04:04:09.732Z" agent="5.0 (Windows NT 10.0; WOW64) AppleWebKit/537.36 (KHTML, like Gecko) Chrome/87.0.4280.141 Safari/537.36" etag="FWtlS8K4_olcXRD7G43U" version="14.1.9" type="github">
  <diagram id="BXUyws523mQUN5JmMcYN" name="Page-1">
    <mxGraphModel dx="1420" dy="746" grid="1" gridSize="10" guides="1" tooltips="1" connect="1" arrows="1" fold="1" page="1" pageScale="1" pageWidth="827" pageHeight="1169" math="0" shadow="0">
      <root>
        <mxCell id="0" />
        <mxCell id="1" parent="0" />
        <mxCell id="UFfflI6aAiiIzoLz6NLX-1" value="松果/瑞狮 admin" style="rounded=1;whiteSpace=wrap;html=1;absoluteArcSize=1;arcSize=14;strokeWidth=2;" vertex="1" parent="1">
          <mxGeometry x="160" y="350" width="100" height="100" as="geometry" />
        </mxCell>
        <mxCell id="UFfflI6aAiiIzoLz6NLX-2" value="ssdb" style="strokeWidth=2;html=1;shape=mxgraph.flowchart.database;whiteSpace=wrap;" vertex="1" parent="1">
          <mxGeometry x="680" y="610" width="60" height="60" as="geometry" />
        </mxCell>
        <mxCell id="UFfflI6aAiiIzoLz6NLX-3" value="内部平台 问询服务" style="rounded=1;whiteSpace=wrap;html=1;absoluteArcSize=1;arcSize=14;strokeWidth=2;" vertex="1" parent="1">
          <mxGeometry x="660" y="350" width="100" height="100" as="geometry" />
        </mxCell>
        <mxCell id="UFfflI6aAiiIzoLz6NLX-6" value="松果/瑞狮 clue-stream" style="rounded=1;whiteSpace=wrap;html=1;absoluteArcSize=1;arcSize=14;strokeWidth=2;" vertex="1" parent="1">
          <mxGeometry x="400" y="350" width="100" height="100" as="geometry" />
        </mxCell>
        <mxCell id="UFfflI6aAiiIzoLz6NLX-7" value="mysql" style="strokeWidth=2;html=1;shape=mxgraph.flowchart.database;whiteSpace=wrap;" vertex="1" parent="1">
          <mxGeometry x="180" y="610" width="60" height="60" as="geometry" />
        </mxCell>
        <mxCell id="UFfflI6aAiiIzoLz6NLX-9" value="mysql" style="strokeWidth=2;html=1;shape=mxgraph.flowchart.database;whiteSpace=wrap;" vertex="1" parent="1">
          <mxGeometry x="680" y="150" width="60" height="60" as="geometry" />
        </mxCell>
        <mxCell id="UFfflI6aAiiIzoLz6NLX-15" value="" style="strokeWidth=2;html=1;shape=mxgraph.flowchart.direct_data;whiteSpace=wrap;" vertex="1" parent="1">
          <mxGeometry x="790" y="500" width="100" height="60" as="geometry" />
        </mxCell>
        <mxCell id="UFfflI6aAiiIzoLz6NLX-22" value="" style="shape=singleArrow;whiteSpace=wrap;html=1;" vertex="1" parent="1">
          <mxGeometry x="280" y="370" width="100" height="60" as="geometry" />
        </mxCell>
        <mxCell id="UFfflI6aAiiIzoLz6NLX-23" value="" style="shape=singleArrow;whiteSpace=wrap;html=1;" vertex="1" parent="1">
          <mxGeometry x="530" y="370" width="100" height="60" as="geometry" />
        </mxCell>
        <mxCell id="UFfflI6aAiiIzoLz6NLX-25" value="存储访问记录" style="endArrow=none;dashed=1;html=1;dashPattern=1 3;strokeWidth=2;entryX=0.5;entryY=1;entryDx=0;entryDy=0;entryPerimeter=0;exitX=0.5;exitY=0;exitDx=0;exitDy=0;" edge="1" parent="1" source="UFfflI6aAiiIzoLz6NLX-3" target="UFfflI6aAiiIzoLz6NLX-9">
          <mxGeometry width="50" height="50" relative="1" as="geometry">
            <mxPoint x="710" y="340" as="sourcePoint" />
            <mxPoint x="540" y="190" as="targetPoint" />
          </mxGeometry>
        </mxCell>
        <mxCell id="UFfflI6aAiiIzoLz6NLX-27" value="" style="endArrow=none;dashed=1;html=1;dashPattern=1 3;strokeWidth=2;entryX=0.5;entryY=1;entryDx=0;entryDy=0;exitX=0.5;exitY=0;exitDx=0;exitDy=0;exitPerimeter=0;" edge="1" parent="1" source="UFfflI6aAiiIzoLz6NLX-7" target="UFfflI6aAiiIzoLz6NLX-1">
          <mxGeometry width="50" height="50" relative="1" as="geometry">
            <mxPoint x="200" y="520" as="sourcePoint" />
            <mxPoint x="250" y="470" as="targetPoint" />
          </mxGeometry>
        </mxCell>
        <mxCell id="UFfflI6aAiiIzoLz6NLX-29" value="" style="endArrow=none;dashed=1;html=1;dashPattern=1 3;strokeWidth=2;exitX=0.5;exitY=0;exitDx=0;exitDy=0;exitPerimeter=0;edgeStyle=orthogonalEdgeStyle;entryX=0.5;entryY=1;entryDx=0;entryDy=0;" edge="1" parent="1" source="UFfflI6aAiiIzoLz6NLX-2" target="UFfflI6aAiiIzoLz6NLX-3">
          <mxGeometry width="50" height="50" relative="1" as="geometry">
            <mxPoint x="850" y="650" as="sourcePoint" />
            <mxPoint x="670" y="560" as="targetPoint" />
            <Array as="points" />
          </mxGeometry>
        </mxCell>
        <mxCell id="UFfflI6aAiiIzoLz6NLX-31" value="" style="shape=flexArrow;endArrow=classic;html=1;edgeStyle=orthogonalEdgeStyle;entryX=0;entryY=0.5;entryDx=0;entryDy=0;entryPerimeter=0;exitX=0.5;exitY=1;exitDx=0;exitDy=0;" edge="1" parent="1" source="UFfflI6aAiiIzoLz6NLX-3" target="UFfflI6aAiiIzoLz6NLX-15">
          <mxGeometry width="50" height="50" relative="1" as="geometry">
            <mxPoint x="690" y="480" as="sourcePoint" />
            <mxPoint x="750" y="550" as="targetPoint" />
          </mxGeometry>
        </mxCell>
        <mxCell id="UFfflI6aAiiIzoLz6NLX-33" value="" style="shape=flexArrow;endArrow=classic;html=1;exitX=1;exitY=0.5;exitDx=0;exitDy=0;exitPerimeter=0;entryX=1;entryY=0.44;entryDx=0;entryDy=0;entryPerimeter=0;edgeStyle=orthogonalEdgeStyle;" edge="1" parent="1" source="UFfflI6aAiiIzoLz6NLX-15" target="UFfflI6aAiiIzoLz6NLX-3">
          <mxGeometry width="50" height="50" relative="1" as="geometry">
            <mxPoint x="940" y="550" as="sourcePoint" />
            <mxPoint x="990" y="500" as="targetPoint" />
            <Array as="points">
              <mxPoint x="920" y="530" />
              <mxPoint x="920" y="394" />
            </Array>
          </mxGeometry>
        </mxCell>
      </root>
    </mxGraphModel>
  </diagram>
</mxfile>
